<svg width="837" height="261" viewBox="0 0 837 261" fill="none" xmlns="http://www.w3.org/2000/svg">
<path d="M120.49 155.98C127.14 148.67 126.55 148.69 138.22 138.87C155.65 124.19 174.48 111.51 194.16 100.07C194.52 99.86 194.91 99.68 195.47 99.73C194.36 100.68 193.24 101.63 192.13 102.58C190.97 103.57 189.8 104.56 188.65 105.56C177.22 115.41 165.83 125.31 155.53 136.38C152.06 140.11 148.94 144.11 147.15 148.95C145.82 152.56 145.46 156.17 147.75 159.85C149.58 158.96 151.32 158.12 153.06 157.27C182.32 142.85 209.37 125.13 233.43 103.02C255.23 82.98 273.77 60.36 287.6 34.07C290.49 28.57 292.82 22.77 295.37 17.09C295.81 16.12 296.08 15.07 296.55 13.68C295.33 13.96 294.51 14.13 293.71 14.33C278 18.34 263.54 25.26 249.65 33.46C226.62 47.08 205.83 63.68 186.03 81.57C161.74 103.5 151.19 121.4 130.16 146.47C129.94 146.74 120.75 155.71 120.46 155.99C118.56 153.87 113.74 148.68 111.8 146.77C100.84 135.99 87.98 133.65 73.6 138.37C66.44 140.72 60.01 144.43 54.05 148.99C53.48 149.43 52.9 149.86 52.07 150.09C53.57 147.99 55.04 145.86 56.57 143.78C68.06 128.19 80.77 113.72 95.9 101.51C108.27 91.53 121.7 83.41 137.02 78.79C147.24 75.7 157.63 74.21 168.31 75.92C168.88 76.01 169.8 75.68 170.12 75.24C186.41 52.68 208.11 36.78 232.79 24.66C257.82 12.36 284.23 4.43 311.79 0.269999C312.38 0.179999 312.98 0.139999 313.96 0.0299988C312.91 3.07 312 5.88 310.98 8.64C302.76 30.74 291.29 51.04 276.55 69.43C257.04 93.76 233.94 113.93 206.66 129.19C205.96 129.58 205.33 130.46 205.09 131.24C201.28 143.55 196.12 155.25 189.4 166.26C179.86 181.89 167.93 195.45 153.92 207.2C142.21 217.02 129.54 225.36 115.69 231.88C115.19 232.11 114.69 232.34 114.18 232.55C114.02 232.62 113.83 232.64 113.4 232.46C113.9 231.94 114.39 231.41 114.9 230.89C122.11 223.51 128.07 215.3 131.22 205.34C135.94 190.42 133.73 176.49 125.82 163.1" fill="#4B7EDF"/>
<path d="M110.3 203.92C103.5 209.55 0 260.21 0 260.21C0 260.21 65.93 166.72 72.73 161.09C79.53 155.46 99.24 158.19 107.67 168.39C116.11 178.59 117.1 198.29 110.29 203.91L110.3 203.92Z" fill="#6A3BFF"/>
<path d="M272.52 129.4C272.52 125.56 275.08 123 278.92 123H320.52V131.8H282.12V152.2H312.52V161H282.12V179H272.52V129.4ZM326.398 179H315.998L337.998 127.4C339.118 124.76 341.758 123 344.718 123C347.598 123 350.158 124.76 351.278 127.4L373.278 179H362.878L344.638 136.28L326.398 179ZM418.214 177.16L388.214 138.52V179H378.614V128.44C378.614 124.68 381.094 122.2 384.934 122.2C386.854 122.2 389.014 123.24 390.214 124.76L420.214 163.48V123H429.814V173.64C429.814 177.32 427.414 179.8 423.574 179.8C421.574 179.8 419.414 178.76 418.214 177.16ZM436.078 123H489.678V131.8H467.678V179H458.078V131.8H436.078V123ZM493.038 179H482.638L504.638 127.4C505.758 124.76 508.398 123 511.358 123C514.238 123 516.798 124.76 517.918 127.4L539.918 179H529.518L511.278 136.28L493.038 179ZM543.74 139.72C543.74 128.92 550.54 123 564.22 123H576.06C590.62 123 595.42 128.52 595.42 140.2V141.4H585.82V141.32C585.82 134.76 585.18 132.6 576.54 132.6H563.5C557.42 132.6 554.38 134.92 554.38 139.48C554.38 143.88 557.18 146.2 562.54 146.2H581.02C591.42 146.2 596.7 152.04 596.7 162.6C596.7 175.4 588.94 179 576.22 179H561.98C547.42 179 543.42 173.48 543.42 161.8V160.6H553.02V160.68C553.02 167.24 552.86 169.4 561.5 169.4H576.94C583.1 169.4 586.06 167.8 586.06 162.92C586.06 157.88 582.94 155.8 577.9 155.8H558.62C549.82 155.8 543.74 149.88 543.74 139.72Z" fill="#4B7EDF"/>
<path d="M601.156 123H654.756V131.8H632.756V179H623.156V131.8H601.156V123ZM660.878 129.4C660.878 125.56 663.438 123 667.278 123H708.878V131.8H670.478V146.6H700.878V155.4H670.478V170.2H708.878V179H667.278C663.438 179 660.878 176.44 660.878 172.6V129.4ZM712.624 150.76C712.624 134.12 721.584 123 738.224 123H744.464C759.024 123 767.824 128.52 767.824 140.2V141.4H758.224V141.32C758.224 134.76 753.584 132.6 744.944 132.6H737.504C726.544 132.6 722.224 139.88 722.224 151.16C722.224 162.12 726.544 169.4 737.504 169.4H744.944C753.664 169.4 758.224 167.4 758.224 160.68V160.6H767.824V161.8C767.824 173.48 759.024 179 744.464 179H738.224C721.584 179 712.624 167.88 712.624 151.24V150.76ZM776.819 123H786.419V146.6H820.819V123H830.419V179H820.819V155.4H786.419V179H776.819V123Z" fill="#6A3BFF"/>
</svg>
